# xmcd
# 
# Track frame offsets:
#     150
#     17260
#     35152
#     52572
#     78920
# 
# Disc length: 1269
# 
# Revision: 0
# Processed by: cddbd v1.5.2PL0 Copyright (c) Steve Scherf et al.
# Submitted via: fre:ac v1.0.17
# 
DISCID=2804f305
DTITLE=Hyphen - The Balm
DYEAR=1997
DGENRE=Alt. Rock
TTITLE0=Futura
TTITLE1=Backhand
TTITLE2=Stanley
TTITLE3=L Dopa
TTITLE4=Elevator
EXTD=
EXTT0=
EXTT1=
EXTT2=
EXTT3=
EXTT4=
PLAYORDER=
